<svg xmlns="http://www.w3.org/2000/svg" xmlns:xlink="http://www.w3.org/1999/xlink" width="512" zoomAndPan="magnify" viewBox="0 0 384 383.999986" height="512" preserveAspectRatio="xMidYMid meet" version="1.0"><defs><clipPath id="77558bd890"><path d="M 124.5 136.070312 L 199.5 136.070312 L 199.5 211.070312 L 124.5 211.070312 Z M 124.5 136.070312 " clip-rule="nonzero"/></clipPath><clipPath id="cbe3086332"><path d="M 199.5 211.070312 C 179.746094 211.070312 160.433594 203.070312 146.46875 189.105469 C 132.5 175.136719 124.5 155.824219 124.5 136.070312 L 162.761719 136.070312 C 162.761719 145.746094 166.679688 155.207031 173.523438 162.046875 C 180.363281 168.890625 189.824219 172.808594 199.5 172.808594 Z M 199.5 211.070312 " clip-rule="nonzero"/></clipPath><clipPath id="34a5e7c122"><path d="M 0.5 0.0703125 L 75.5 0.0703125 L 75.5 75.070312 L 0.5 75.070312 Z M 0.5 0.0703125 " clip-rule="nonzero"/></clipPath><clipPath id="ab61a62cb2"><path d="M 75.5 75.070312 C 55.746094 75.070312 36.433594 67.070312 22.46875 53.105469 C 8.5 39.136719 0.5 19.824219 0.5 0.0703125 L 38.761719 0.0703125 C 38.761719 9.746094 42.679688 19.207031 49.523438 26.046875 C 56.363281 32.890625 65.824219 36.808594 75.5 36.808594 Z M 75.5 75.070312 " clip-rule="nonzero"/></clipPath><clipPath id="539edf7f41"><rect x="0" width="76" y="0" height="76"/></clipPath></defs><path stroke-linecap="round" transform="matrix(0.67082, 0.33541, -0.33541, 0.67082, 216.867573, 103.656846)" fill="none" stroke-linejoin="miter" d="M 25.502007 25.500013 L 211.848007 25.502343 " stroke="#000000" stroke-width="51" stroke-opacity="1" stroke-miterlimit="4"/><path stroke-linecap="round" transform="matrix(0.67082, -0.33541, 0.33541, 0.67082, 199.761642, 246.131289)" fill="none" stroke-linejoin="miter" d="M 25.502007 25.500027 L 211.848006 25.497696 " stroke="#000000" stroke-width="51" stroke-opacity="1" stroke-miterlimit="4"/><g clip-path="url(#77558bd890)"><g clip-path="url(#cbe3086332)"><g transform="matrix(1, 0, 0, 1, 124, 136)"><g clip-path="url(#539edf7f41)"><g clip-path="url(#34a5e7c122)"><g clip-path="url(#ab61a62cb2)"><path fill="#000000" d="M 0.5 75.070312 L 0.5 0.0703125 L 75.5 0.0703125 L 75.5 75.070312 Z M 0.5 75.070312 " fill-opacity="1" fill-rule="nonzero"/></g></g></g></g></g></g><path stroke-linecap="round" transform="matrix(0, 0.75, -0.75, 0, 162.745672, 4.647363)" fill="none" stroke-linejoin="miter" d="M 25.501435 25.49944 L 177.199363 25.49944 " stroke="#000000" stroke-width="51" stroke-opacity="1" stroke-miterlimit="4"/><path stroke-linecap="round" transform="matrix(0.75, 0, 0, 0.75, 179.64474, 172.874986)" fill="none" stroke-linejoin="miter" d="M 25.499723 25.50002 L 149.0414 25.50002 " stroke="#000000" stroke-width="51" stroke-opacity="1" stroke-miterlimit="4"/></svg>