<svg xmlns="http://www.w3.org/2000/svg" xmlns:xlink="http://www.w3.org/1999/xlink" width="1920" zoomAndPan="magnify" viewBox="0 0 1440 809.999993" height="1080" preserveAspectRatio="xMidYMid meet" version="1.0"><defs><g/></defs><g fill="#47d991" fill-opacity="1"><g transform="translate(16.901372, 475.499996)"><g><path d="M 138.4375 -92.1875 L 138.4375 0 L 120.984375 0 L 120.984375 -95.390625 C 120.984375 -107.410156 117.539062 -116.910156 110.65625 -123.890625 C 103.769531 -130.867188 94.414062 -134.359375 82.59375 -134.359375 C 69.988281 -134.359375 59.90625 -129.800781 52.34375 -120.6875 C 44.78125 -111.582031 40.90625 -99.5625 40.71875 -84.625 L 40.71875 0 L 23.265625 0 L 23.265625 -125.921875 C 22.679688 -133.097656 22.195312 -139.789062 21.8125 -146 L 39.84375 -146 L 40.71875 -124.46875 L 41.296875 -123.890625 C 46.335938 -133.003906 52.925781 -139.691406 61.0625 -143.953125 C 69.207031 -148.222656 77.835938 -150.359375 86.953125 -150.359375 C 104.015625 -150.359375 116.859375 -145.125 125.484375 -134.65625 C 134.117188 -124.1875 138.4375 -110.03125 138.4375 -92.1875 Z M 138.4375 -92.1875 "/></g></g></g><g fill="#47d991" fill-opacity="1"><g transform="translate(178.605339, 475.499996)"><g><path d="M 148.90625 -73 C 148.90625 -50.3125 142.695312 -31.84375 130.28125 -17.59375 C 117.875 -3.34375 101.394531 3.972656 80.84375 4.359375 C 60.289062 4.359375 43.90625 -2.8125 31.6875 -17.15625 C 19.476562 -31.507812 13.179688 -50.125 12.796875 -73 C 12.796875 -95.6875 19.046875 -114.203125 31.546875 -128.546875 C 44.054688 -142.890625 60.488281 -150.160156 80.84375 -150.359375 C 101.59375 -150.359375 118.070312 -143.035156 130.28125 -128.390625 C 142.5 -113.753906 148.707031 -95.289062 148.90625 -73 Z M 80.84375 -11.640625 C 95.195312 -11.640625 106.976562 -17.503906 116.1875 -29.234375 C 125.394531 -40.960938 130 -55.550781 130 -73 C 130 -90.25 125.539062 -104.785156 116.625 -116.609375 C 107.707031 -128.441406 95.6875 -134.359375 80.5625 -134.359375 C 65.820312 -134.359375 53.992188 -128.347656 45.078125 -116.328125 C 36.160156 -104.304688 31.703125 -89.863281 31.703125 -73 C 31.703125 -55.351562 36.207031 -40.757812 45.21875 -29.21875 C 54.238281 -17.6875 66.113281 -11.828125 80.84375 -11.640625 Z M 80.84375 -11.640625 "/></g></g></g><g fill="#47d991" fill-opacity="1"><g transform="translate(340.315419, 475.499996)"><g><path d="M 131.75 -107.03125 L 92.484375 -107.03125 C 92.097656 -112.457031 90.253906 -116.71875 86.953125 -119.8125 C 83.660156 -122.914062 78.523438 -124.46875 71.546875 -124.46875 C 65.535156 -124.46875 60.640625 -123.160156 56.859375 -120.546875 C 53.078125 -117.929688 51.1875 -114.394531 51.1875 -109.9375 C 51.1875 -103.726562 54.867188 -99.457031 62.234375 -97.125 C 69.597656 -94.800781 76.96875 -92.671875 84.34375 -90.734375 C 106.832031 -85.304688 121.226562 -79.050781 127.53125 -71.96875 C 133.832031 -64.894531 136.984375 -56.316406 136.984375 -46.234375 C 136.984375 -31.503906 130.773438 -19.390625 118.359375 -9.890625 C 105.953125 -0.390625 89.671875 4.359375 69.515625 4.359375 C 51.285156 4.359375 36.546875 0.191406 25.296875 -8.140625 C 14.054688 -16.484375 8.4375 -27.921875 8.4375 -42.453125 L 48.859375 -42.453125 C 49.242188 -36.253906 51.519531 -31.359375 55.6875 -27.765625 C 59.863281 -24.179688 65.726562 -22.390625 73.28125 -22.390625 C 80.070312 -22.390625 85.550781 -24.035156 89.71875 -27.328125 C 93.882812 -30.628906 95.96875 -34.800781 95.96875 -39.84375 C 95.96875 -43.914062 94.222656 -47.359375 90.734375 -50.171875 C 87.242188 -52.984375 74.351562 -57.101562 52.0625 -62.53125 C 38.488281 -66.40625 28.359375 -71.441406 21.671875 -77.640625 C 14.984375 -83.847656 11.640625 -92.769531 11.640625 -104.40625 C 11.640625 -118.5625 17.648438 -129.757812 29.671875 -138 C 41.691406 -146.238281 57.101562 -150.359375 75.90625 -150.359375 C 92.582031 -150.359375 105.863281 -146.523438 115.75 -138.859375 C 125.632812 -131.203125 130.96875 -120.59375 131.75 -107.03125 Z M 131.75 -107.03125 "/></g></g></g><g fill="#47d991" fill-opacity="1"><g transform="translate(485.732634, 475.499996)"><g><path d="M 166.359375 -76.484375 C 166.359375 -53.410156 160.488281 -34.554688 148.75 -19.921875 C 137.019531 -5.285156 121.5625 2.03125 102.375 2.03125 C 93.84375 2.03125 86.617188 0.867188 80.703125 -1.453125 C 74.785156 -3.773438 68.335938 -8.914062 61.359375 -16.875 L 61.359375 56.421875 L 17.453125 56.421875 L 17.453125 -146.875 L 59.328125 -146.875 L 60.5 -125.921875 C 64.375 -133.097656 70.039062 -138.867188 77.5 -143.234375 C 84.96875 -147.597656 94.226562 -149.78125 105.28125 -149.78125 C 124.082031 -149.78125 138.960938 -143.085938 149.921875 -129.703125 C 160.878906 -116.328125 166.359375 -98.585938 166.359375 -76.484375 Z M 91.3125 -26.171875 C 101.207031 -26.171875 108.914062 -30.484375 114.4375 -39.109375 C 119.96875 -47.742188 122.734375 -59.523438 122.734375 -74.453125 C 122.734375 -89.191406 120.210938 -100.820312 115.171875 -109.34375 C 110.128906 -117.875 102.664062 -122.140625 92.78125 -122.140625 C 83.082031 -122.140625 75.082031 -117.828125 68.78125 -109.203125 C 62.476562 -100.578125 59.328125 -88.316406 59.328125 -72.421875 C 59.328125 -57.679688 62.039062 -46.285156 67.46875 -38.234375 C 72.894531 -30.191406 80.84375 -26.171875 91.3125 -26.171875 Z M 91.3125 -26.171875 "/></g></g></g><g fill="#47d991" fill-opacity="1"><g transform="translate(663.432465, 475.499996)"><g><path d="M 87.25 5.234375 C 63.976562 5.234375 45.65625 -1.890625 32.28125 -16.140625 C 18.90625 -30.390625 12.21875 -49.050781 12.21875 -72.125 C 12.21875 -96.164062 19.050781 -115.210938 32.71875 -129.265625 C 46.382812 -143.328125 64.851562 -150.359375 88.125 -150.359375 C 111.78125 -150.359375 130.390625 -143.378906 143.953125 -129.421875 C 157.523438 -115.460938 164.3125 -96.75 164.3125 -73.28125 C 164.3125 -49.4375 157.378906 -30.390625 143.515625 -16.140625 C 129.660156 -1.890625 110.90625 5.234375 87.25 5.234375 Z M 120.40625 -74.75 C 120.40625 -105.957031 109.644531 -121.5625 88.125 -121.5625 C 77.84375 -121.5625 69.988281 -117.679688 64.5625 -109.921875 C 59.132812 -102.171875 56.421875 -89.472656 56.421875 -71.828125 C 56.421875 -55.347656 59.085938 -43.375 64.421875 -35.90625 C 69.753906 -28.445312 77.847656 -24.71875 88.703125 -24.71875 C 99.753906 -24.71875 107.800781 -28.789062 112.84375 -36.9375 C 117.882812 -45.082031 120.40625 -57.6875 120.40625 -74.75 Z M 120.40625 -74.75 "/></g></g></g><g fill="#47d991" fill-opacity="1"><g transform="translate(841.132334, 475.499996)"><g><path d="M 63.40625 -209.984375 L 63.40625 -172.46875 L 17.453125 -172.46875 L 17.453125 -209.984375 Z M 61.953125 -147.15625 L 61.953125 0 L 18.90625 0 L 18.90625 -147.15625 Z M 61.953125 -147.15625 "/></g></g></g><g fill="#47d991" fill-opacity="1"><g transform="translate(921.984334, 475.499996)"><g><path d="M 61.953125 -210.265625 L 61.953125 0 L 18.90625 0 L 18.90625 -210.265625 Z M 61.953125 -210.265625 "/></g></g></g><g fill="#47d991" fill-opacity="1"><g transform="translate(1002.836335, 475.499996)"><g><path d="M 84.046875 -151.8125 C 105.378906 -151.8125 122.101562 -144.6875 134.21875 -130.4375 C 146.332031 -116.1875 152.390625 -95.78125 152.390625 -69.21875 C 152.390625 -66.5 152.296875 -64.269531 152.109375 -62.53125 L 53.515625 -62.53125 C 53.515625 -48.570312 56.082031 -38.535156 61.21875 -32.421875 C 66.351562 -26.316406 73.769531 -23.265625 83.46875 -23.265625 C 91.03125 -23.265625 96.75 -25.101562 100.625 -28.78125 C 104.5 -32.46875 107.3125 -37.414062 109.0625 -43.625 L 148.328125 -43.625 C 146.960938 -27.726562 140.65625 -15.5625 129.40625 -7.125 C 118.164062 1.3125 102.753906 5.53125 83.171875 5.53125 C 60.296875 5.53125 42.75 -0.71875 30.53125 -13.21875 C 18.320312 -25.726562 12.21875 -44.6875 12.21875 -70.09375 C 12.21875 -94.519531 18.375 -114.050781 30.6875 -128.6875 C 43 -143.332031 60.785156 -151.039062 84.046875 -151.8125 Z M 108.1875 -89.578125 C 108.1875 -100.046875 106.050781 -108.140625 101.78125 -113.859375 C 97.519531 -119.578125 91.125 -122.4375 82.59375 -122.4375 C 74.445312 -122.4375 67.953125 -119.671875 63.109375 -114.140625 C 58.265625 -108.617188 55.550781 -100.429688 54.96875 -89.578125 Z M 108.1875 -89.578125 "/></g></g></g><g fill="#47d991" fill-opacity="1"><g transform="translate(1164.540294, 475.499996)"><g><path d="M 108.1875 -109.0625 C 104.894531 -109.445312 101.210938 -109.640625 97.140625 -109.640625 C 86.085938 -109.640625 77.457031 -107.019531 71.25 -101.78125 C 65.050781 -96.550781 61.953125 -87.25 61.953125 -73.875 L 61.953125 0 L 18.90625 0 L 18.90625 -116.90625 C 18.125 -134.164062 17.445312 -144.347656 16.875 -147.453125 L 57.296875 -147.453125 C 57.878906 -142.992188 58.171875 -133.6875 58.171875 -119.53125 C 63.210938 -130.382812 69.367188 -137.796875 76.640625 -141.765625 C 83.910156 -145.742188 92.875 -147.734375 103.53125 -147.734375 L 108.1875 -147.734375 Z M 108.1875 -109.0625 "/></g></g></g><g fill="#47d991" fill-opacity="1"><g transform="translate(1277.674932, 475.499996)"><g><path d="M 131.75 -107.03125 L 92.484375 -107.03125 C 92.097656 -112.457031 90.253906 -116.71875 86.953125 -119.8125 C 83.660156 -122.914062 78.523438 -124.46875 71.546875 -124.46875 C 65.535156 -124.46875 60.640625 -123.160156 56.859375 -120.546875 C 53.078125 -117.929688 51.1875 -114.394531 51.1875 -109.9375 C 51.1875 -103.726562 54.867188 -99.457031 62.234375 -97.125 C 69.597656 -94.800781 76.96875 -92.671875 84.34375 -90.734375 C 106.832031 -85.304688 121.226562 -79.050781 127.53125 -71.96875 C 133.832031 -64.894531 136.984375 -56.316406 136.984375 -46.234375 C 136.984375 -31.503906 130.773438 -19.390625 118.359375 -9.890625 C 105.953125 -0.390625 89.671875 4.359375 69.515625 4.359375 C 51.285156 4.359375 36.546875 0.191406 25.296875 -8.140625 C 14.054688 -16.484375 8.4375 -27.921875 8.4375 -42.453125 L 48.859375 -42.453125 C 49.242188 -36.253906 51.519531 -31.359375 55.6875 -27.765625 C 59.863281 -24.179688 65.726562 -22.390625 73.28125 -22.390625 C 80.070312 -22.390625 85.550781 -24.035156 89.71875 -27.328125 C 93.882812 -30.628906 95.96875 -34.800781 95.96875 -39.84375 C 95.96875 -43.914062 94.222656 -47.359375 90.734375 -50.171875 C 87.242188 -52.984375 74.351562 -57.101562 52.0625 -62.53125 C 38.488281 -66.40625 28.359375 -71.441406 21.671875 -77.640625 C 14.984375 -83.847656 11.640625 -92.769531 11.640625 -104.40625 C 11.640625 -118.5625 17.648438 -129.757812 29.671875 -138 C 41.691406 -146.238281 57.101562 -150.359375 75.90625 -150.359375 C 92.582031 -150.359375 105.863281 -146.523438 115.75 -138.859375 C 125.632812 -131.203125 130.96875 -120.59375 131.75 -107.03125 Z M 131.75 -107.03125 "/></g></g></g></svg>