<svg xmlns="http://www.w3.org/2000/svg" xmlns:xlink="http://www.w3.org/1999/xlink" width="512" zoomAndPan="magnify" viewBox="0 0 384 383.999986" height="512" preserveAspectRatio="xMidYMid meet" version="1.0"><defs><clipPath id="1cc0c6bb3d"><path d="M 0 24 L 384 24 L 384 360 L 0 360 Z M 0 24 " clip-rule="nonzero"/></clipPath><clipPath id="92244e52be"><path d="M 15.222656 77.648438 C -15.910156 128.945312 6.023438 178.871094 33.589844 205.367188 L 194.761719 360 L 352.535156 205.921875 C 378.171875 177.414062 388 147.179688 382.542969 113.511719 C 375.003906 66.9375 336.621094 30.800781 289.210938 25.640625 C 260.132812 22.511719 232.042969 30.742188 210.117188 48.957031 C 204.21875 53.859375 198.941406 59.339844 194.347656 65.296875 C 188.894531 58.515625 182.496094 52.3125 175.265625 46.8125 C 150.054688 27.652344 117.960938 20.046875 87.136719 25.960938 C 57.941406 31.601562 31.734375 50.433594 15.222656 77.648438 Z M 15.222656 77.648438 " clip-rule="nonzero"/></clipPath><clipPath id="cc9a0752bc"><path d="M 0 0 L 384 0 L 384 336 L 0 336 Z M 0 0 " clip-rule="nonzero"/></clipPath><clipPath id="a1643357a9"><path d="M 15.222656 53.648438 C -15.910156 104.945312 6.023438 154.871094 33.589844 181.367188 L 194.761719 336 L 352.535156 181.921875 C 378.171875 153.414062 388 123.179688 382.542969 89.511719 C 375.003906 42.9375 336.621094 6.800781 289.210938 1.640625 C 260.132812 -1.488281 232.042969 6.742188 210.117188 24.957031 C 204.21875 29.859375 198.941406 35.339844 194.347656 41.296875 C 188.894531 34.515625 182.496094 28.3125 175.265625 22.8125 C 150.054688 3.652344 117.960938 -3.953125 87.136719 1.960938 C 57.941406 7.601562 31.734375 26.433594 15.222656 53.648438 Z M 15.222656 53.648438 " clip-rule="nonzero"/></clipPath><clipPath id="eb7e23379e"><rect x="0" width="384" y="0" height="336"/></clipPath></defs><g clip-path="url(#1cc0c6bb3d)"><g clip-path="url(#92244e52be)"><g transform="matrix(1, 0, 0, 1, 0, 24)"><g clip-path="url(#eb7e23379e)"><g clip-path="url(#cc9a0752bc)"><g clip-path="url(#a1643357a9)"><rect x="-84.48" width="552.96" fill="#000000" height="552.959979" y="-108.479997" fill-opacity="1"/></g></g></g></g><path stroke-linecap="butt" transform="matrix(0.75, 0, 0, 0.75, 0.0000072, 23.999998)" fill="none" stroke-linejoin="miter" d="M 20.296867 71.531258 C -21.213553 139.927097 8.031241 206.494811 44.786452 241.822938 L 259.682303 448.000038 L 470.046903 242.562522 C 504.229197 204.552102 517.333365 164.239599 510.057322 119.34897 C 500.005238 57.250007 448.828151 9.067712 385.614604 2.187503 C 346.843768 -1.984373 309.39064 8.989587 280.156263 33.276047 C 272.291679 39.812506 265.25522 47.119798 259.130219 55.062507 C 251.859385 46.02084 243.328135 37.750006 233.687509 30.416672 C 200.072923 4.869795 157.281253 -5.270831 116.182291 2.614586 C 77.255205 10.13542 42.312494 35.244797 20.296867 71.531258 Z M 20.296867 71.531258 " stroke="#000000" stroke-width="60" stroke-opacity="1" stroke-miterlimit="4"/></g></g></svg>